<svg width="569.8px" height="129.2px" xmlns="http://www.w3.org/2000/svg" viewBox="-34.90312499999999 10.400000000000006 569.80625 129.2" style="background: rgb(220, 199, 183)" preserveAspectRatio="xMidYMid"><defs><filter id="editing-vintage" x="-100%" y="-100%" width="300%" height="300%"><feConvolveMatrix in="SourceGraphic" result="extrude" order="9,9" divisor="1" kernelMatrix="1,0,0,0,0,0,0,0,0,0,1,0,0,0,0,0,0,0,0,0,1,0,0,0,0,0,0,0,0,0,1,0,0,0,0,0,0,0,0,0,1,0,0,0,0,0,0,0,0,0,1,0,0,0,0,0,0,0,0,0,1,0,0,0,0,0,0,0,0,0,1,0,0,0,0,0,0,0,0,0,1"> </feConvolveMatrix><feFlood flood-color="#ab0e0e" result="flood-extrude"></feFlood><feComposite operator="in" in="flood-extrude" in2="extrude" result="extrude-color"></feComposite><feOffset dx="5" dy="5" in="extrude-color" result="extrude-offset"></feOffset><feColorMatrix in="SourceGraphic" result="stroke" type="matrix" values="0 0 0 0 0 0 0 0 0 0 0 0 0 0 0 0 1 0 0 0 "></feColorMatrix><feColorMatrix in="SourceGraphic" result="fill" type="matrix" values="0 0 0 0 0 0 0 0 0 0 0 0 0 0 0 1 0 0 1 0 "></feColorMatrix><feConvolveMatrix in="stroke" result="inner-shadow" order="5,5" divisor="1" kernelMatrix="1 0 0 0 0 0 1 0 0 0 0 0 1 0 0 0 0 0 1 0 0 0 0 0 1 "></feConvolveMatrix><feOffset dx="1" dy="1" in="inner-shadow" result="offset"></feOffset><feComposite operator="in" in="offset" in2="SourceAlpha" result="comp"></feComposite><feFlood flood-color="#100f0f" result="flood3"></feFlood><feComposite operator="in" in="flood3" in2="comp" result="comp2"></feComposite><feColorMatrix in="comp2" result="comp3" type="matrix" values="1 0 0 0 0 0 1 0 0 0 0 0 1 0 0 0 0 0 0.5 0 "></feColorMatrix><feFlood flood-color="#a87676" result="flood1"></feFlood><feComposite operator="in" in="flood1" in2="fill" result="fill2"></feComposite><feFlood flood-color="#fff" result="flood2"></feFlood><feComposite operator="in" in="flood2" in2="stroke" result="stroke2"></feComposite><feMerge result="obj"><feMergeNode in="extrude-offset"></feMergeNode><feMergeNode in="fill2"></feMergeNode><feMergeNode in="comp3"></feMergeNode></feMerge><feConvolveMatrix in="SourceAlpha" result="shadow" order="9,9" divisor="1" kernelMatrix="1,0,0,0,0,0,0,0,0,0,1,0,0,0,0,0,0,0,0,0,1,0,0,0,0,0,0,0,0,0,1,0,0,0,0,0,0,0,0,0,1,0,0,0,0,0,0,0,0,0,1,0,0,0,0,0,0,0,0,0,1,0,0,0,0,0,0,0,0,0,1,0,0,0,0,0,0,0,0,0,1"></feConvolveMatrix><feOffset dx="15" dy="15" in="shadow" result="shadow-offset"></feOffset><feFlood flood-color="#534b4b" result="flood-shadow"></feFlood><feComposite operator="in" in="flood-shadow" in2="shadow-offset" result="shadow-color"></feComposite><feMerge><feMergeNode in="shadow-color"></feMergeNode><feMergeNode in="obj"></feMergeNode></feMerge></filter></defs><g transform="matrix(1,0,0,1,-9,-9)"><g transform="matrix(1.3,0,0,1.3,-72.2,-28.4)" filter="url(#editing-vintage)"><g transform="translate(47.3,107)"><path d="M -1.7 -59.6 L 9.1 -59.6 L 9.1 -59.6 Q 7.9 -56.7 7.7 -53.7 L 7.7 -53.7 L 7.7 -53.7 Q 7.5 -50.8 7.4 -48.7 L 7.4 -48.7 L 7.4 -48.7 Q 7.4 -46.6 7.3 -44.4 L 7.3 -44.4 L 7.3 -44.4 Q 7.2 -39.1 7.2 -34.8 L 7.2 -34.8 L 7.2 -34.8 Q 7.2 -17.1 8.5 -13.1 L 8.5 -13.1 L 8.5 -13.1 Q 8.7 -12.4 9.1 -11.7 L 9.1 -11.7 L -1.7 -11.7 L -1.7 -11.7 Q -0.7 -13.9 -0.6 -15.6 L -0.6 -15.6 L -0.6 -15.6 Q -0.4 -17.3 -0.2 -19.7 L -0.2 -19.7 L -0.2 -19.7 Q 0.2 -24.6 0.2 -31 L 0.2 -31 L 0.2 -31 Q 0.2 -37.4 0.1 -39.8 L 0.1 -39.8 L 0.1 -39.8 Q 0.1 -42.1 0 -44.4 L 0 -44.4 L 0 -44.4 Q -0.2 -55.3 -1.3 -58.3 L -1.3 -58.3 L -1.7 -59.6 Z M 27.5 -11.7 L 18.6 -11.7 L 18.6 -11.7 Q 20 -16.7 20 -28.7 L 20 -28.7 L 20 -28.7 Q 20 -37.3 18.5 -40.4 L 18.5 -40.4 L 18.5 -40.4 Q 18.1 -41.2 17.7 -41.9 L 17.7 -41.9 L 16.6 -43.3 L 27.5 -43.3 L 27.5 -43.3 Q 27 -41.5 26.9 -40.4 L 26.9 -40.4 L 26.6 -38.5 L 26.6 -38.5 Q 30.3 -43.9 35.9 -43.9 L 35.9 -43.9 L 35.9 -43.9 Q 41.5 -43.9 43.1 -37.8 L 43.1 -37.8 L 43.1 -37.8 Q 45.6 -42.1 49.7 -43.4 L 49.7 -43.4 L 49.7 -43.4 Q 51.1 -43.9 52.9 -43.9 L 52.9 -43.9 L 52.9 -43.9 Q 54.7 -43.9 56.1 -43.2 L 56.1 -43.2 L 56.1 -43.2 Q 57.6 -42.4 58.6 -41 L 58.6 -41 L 58.6 -41 Q 60.6 -38.2 60.6 -33.2 L 60.6 -33.2 L 60.6 -29.9 L 60.6 -29.9 Q 60.6 -20.3 60.8 -17.9 L 60.8 -17.9 L 60.8 -17.9 Q 61.1 -15.5 61.2 -14.7 L 61.2 -14.7 L 61.2 -14.7 Q 61.4 -13.3 61.9 -11.7 L 61.9 -11.7 L 52.6 -11.7 L 52.6 -11.7 Q 54 -16.5 54 -28.7 L 54 -28.7 L 54 -28.7 Q 54 -33.7 53.5 -35.4 L 53.5 -35.4 L 53.5 -35.4 Q 53 -37.1 52.2 -37.9 L 52.2 -37.9 L 52.2 -37.9 Q 51.4 -38.6 50 -38.6 L 50 -38.6 L 50 -38.6 Q 46 -38.6 43.6 -33.9 L 43.6 -33.9 L 43.6 -29.9 L 43.6 -29.9 Q 43.6 -20.3 43.9 -17.9 L 43.9 -17.9 L 43.9 -17.9 Q 44.2 -15.5 44.3 -14.7 L 44.3 -14.7 L 44.3 -14.7 Q 44.5 -13.3 44.9 -11.7 L 44.9 -11.7 L 35.7 -11.7 L 35.7 -11.7 Q 37.1 -16.6 37.1 -28.7 L 37.1 -28.7 L 37.1 -28.7 Q 37.1 -33.8 36.6 -35.4 L 36.6 -35.4 L 36.6 -35.4 Q 36.1 -37.1 35.3 -37.9 L 35.3 -37.9 L 35.3 -37.9 Q 34.5 -38.6 33.2 -38.6 L 33.2 -38.6 L 33.2 -38.6 Q 31.8 -38.6 30.7 -38.1 L 30.7 -38.1 L 30.7 -38.1 Q 29.6 -37.6 28.8 -36.7 L 28.8 -36.7 L 28.8 -36.7 Q 27.1 -35.1 26.2 -32.5 L 26.2 -32.5 L 26.2 -32.5 Q 26.1 -31.6 26.1 -30.6 L 26.1 -30.6 L 26.1 -28.7 L 26.1 -28.7 Q 26.1 -16.7 27.5 -11.7 L 27.5 -11.7 Z M 42.5 -30.6 L 42.6 -31.1 L 42.5 -30.6 Z M 92.7 -28.4 L 92.7 -28.4 L 92.6 -22.4 L 92.6 -22.4 Q 92.6 -16.8 93.6 -14.8 L 93.6 -14.8 L 93.6 -14.8 Q 94.3 -13.6 95.1 -12.9 L 95.1 -12.9 L 96.6 -11.7 L 87.5 -11.7 L 86.5 -15.4 L 86.5 -15.4 Q 83 -11.1 76.5 -11.1 L 76.5 -11.1 L 76.5 -11.1 Q 72.8 -11.1 70.5 -13.6 L 70.5 -13.6 L 70.5 -13.6 Q 68.5 -15.9 68.5 -18.9 L 68.5 -18.9 L 68.5 -18.9 Q 68.5 -22 69.9 -24.3 L 69.9 -24.3 L 69.9 -24.3 Q 71.4 -26.6 73.8 -28.1 L 73.8 -28.1 L 73.8 -28.1 Q 78.4 -31 85.5 -31.1 L 85.5 -31.1 L 85.5 -31.4 L 85.5 -31.4 Q 85.5 -39 83.2 -40.3 L 83.2 -40.3 L 83.2 -40.3 Q 82.4 -40.8 81 -40.8 L 81 -40.8 L 81 -40.8 Q 79.7 -40.8 78.4 -39.9 L 78.4 -39.9 L 78.4 -39.9 Q 77.1 -39.1 76 -37.7 L 76 -37.7 L 76 -37.7 Q 73.9 -34.9 73 -31.1 L 73 -31.1 L 73 -31.1 Q 70.2 -32.8 70.2 -37.5 L 70.2 -37.5 L 70.2 -37.5 Q 70.2 -39.4 70.7 -41.7 L 70.7 -41.7 L 70.7 -41.7 Q 71.9 -41.7 72.9 -42.1 L 72.9 -42.1 L 75.4 -42.8 L 75.4 -42.8 Q 78.9 -43.9 82.3 -43.9 L 82.3 -43.9 L 82.3 -43.9 Q 85.6 -43.9 87.6 -42.9 L 87.6 -42.9 L 87.6 -42.9 Q 89.7 -41.9 90.8 -40 L 90.8 -40 L 90.8 -40 Q 92.7 -36.6 92.7 -28.4 Z M 75.2 -18.3 L 75.2 -18.3 Q 75.2 -16.4 76.1 -15.3 L 76.1 -15.3 L 76.1 -15.3 Q 77 -14.2 78.4 -14.2 L 78.4 -14.2 L 78.4 -14.2 Q 79.7 -14.2 80.9 -14.9 L 80.9 -14.9 L 80.9 -14.9 Q 82.2 -15.7 83.2 -16.9 L 83.2 -16.9 L 83.2 -16.9 Q 85.5 -19.7 85.5 -23.4 L 85.5 -23.4 L 85.5 -28 L 85.5 -28 Q 81.2 -27.6 78.3 -25.1 L 78.3 -25.1 L 78.3 -25.1 Q 75.2 -22.4 75.2 -18.3 L 75.2 -18.3 Z M 117.2 -12.5 L 117.2 -12.5 L 117.2 -12.5 Q 114.2 -11.1 111.3 -11.1 L 111.3 -11.1 L 111.3 -11.1 Q 108.3 -11.1 106.4 -11.9 L 106.4 -11.9 L 106.4 -11.9 Q 104.4 -12.6 103.1 -14.1 L 103.1 -14.1 L 103.1 -14.1 Q 100.2 -17.1 100.2 -22.3 L 100.2 -22.3 L 100.2 -22.3 Q 100.2 -32.5 106 -38.2 L 106 -38.2 L 106 -38.2 Q 111.3 -43.3 118.6 -43.3 L 118.6 -43.3 L 125.7 -43.3 L 125.7 -43.3 Q 124.9 -40.3 124.7 -37.5 L 124.7 -37.5 L 124.7 -37.5 Q 124.6 -34.7 124.6 -32.9 L 124.6 -32.9 L 124.6 -32.9 Q 124.5 -31.2 124.5 -29.4 L 124.5 -29.4 L 124.5 -29.4 Q 124.4 -25.7 124.4 -22 L 124.4 -22 L 124.4 -22 Q 124.4 -18.2 123.8 -14.6 L 123.8 -14.6 L 123.8 -14.6 Q 123.2 -11.1 122.2 -8.4 L 122.2 -8.4 L 122.2 -8.4 Q 121.3 -5.8 120 -3.9 L 120 -3.9 L 120 -3.9 Q 118.7 -2 117.4 -0.7 L 117.4 -0.7 L 117.4 -0.7 Q 115.1 1.3 112.1 2.3 L 112.1 2.3 L 112.1 2.3 Q 111.5 2.1 110.9 1.4 L 110.9 1.4 L 110.9 1.4 Q 110.4 0.8 110.2 0.1 L 110.2 0.1 L 110.2 0.1 Q 113.8 -1.3 115.9 -7 L 115.9 -7 L 115.9 -7 Q 116.7 -9.2 117.2 -12.5 Z M 117.9 -22.2 L 117.9 -22.2 L 118 -31.6 L 118 -31.6 Q 118 -37.2 117.6 -40.1 L 117.6 -40.1 L 117.6 -40.1 Q 113.2 -39.2 110.6 -34.9 L 110.6 -34.9 L 110.6 -34.9 Q 108 -30.4 108 -23.6 L 108 -23.6 L 108 -23.6 Q 108 -19.4 108.6 -17.6 L 108.6 -17.6 L 108.6 -17.6 Q 109.3 -15.9 110.2 -15.1 L 110.2 -15.1 L 110.2 -15.1 Q 111.1 -14.2 112.3 -14.2 L 112.3 -14.2 L 112.3 -14.2 Q 113.6 -14.2 114.6 -14.7 L 114.6 -14.7 L 114.6 -14.7 Q 115.5 -15.2 116.3 -16.2 L 116.3 -16.2 L 116.3 -16.2 Q 117.9 -18.4 117.9 -22.2 Z M 153.7 -22.4 L 153.7 -22.4 L 153.7 -22.4 Q 154.9 -21.6 154.9 -19.8 L 154.9 -19.8 L 154.9 -19.8 Q 154.9 -17.9 154.4 -16.5 L 154.4 -16.5 L 154.4 -16.5 Q 153.9 -15.1 152.6 -13.9 L 152.6 -13.9 L 152.6 -13.9 Q 149.8 -11.1 144 -11.1 L 144 -11.1 L 144 -11.1 Q 137.4 -11.1 133.9 -16.1 L 133.9 -16.1 L 133.9 -16.1 Q 130.8 -20.5 130.8 -28 L 130.8 -28 L 130.8 -28 Q 130.8 -35.5 134.9 -39.8 L 134.9 -39.8 L 134.9 -39.8 Q 138.9 -43.9 145.7 -43.9 L 145.7 -43.9 L 145.7 -43.9 Q 150.4 -43.9 153.1 -41.2 L 153.1 -41.2 L 153.1 -41.2 Q 155.2 -39 155.2 -36.1 L 155.2 -36.1 L 155.2 -36.1 Q 155.2 -33.3 154.1 -31 L 154.1 -31 L 154.1 -31 Q 152.9 -28.7 150.8 -27 L 150.8 -27 L 150.8 -27 Q 146.4 -23.6 138.4 -23.4 L 138.4 -23.4 L 138.4 -23.4 Q 139 -17.1 142.3 -15 L 142.3 -15 L 142.3 -15 Q 143.5 -14.2 145.5 -14.2 L 145.5 -14.2 L 145.5 -14.2 Q 147.4 -14.2 149.7 -16.3 L 149.7 -16.3 L 149.7 -16.3 Q 151.9 -18.4 153.7 -22.4 Z M 138.2 -27.3 L 138.2 -26.4 L 138.2 -26.4 Q 148.1 -27 148.1 -35.9 L 148.1 -35.9 L 148.1 -35.9 Q 148.1 -39.3 146.1 -40.4 L 146.1 -40.4 L 146.1 -40.4 Q 145.4 -40.8 144.3 -40.8 L 144.3 -40.8 L 144.3 -40.8 Q 143.1 -40.8 142 -40.1 L 142 -40.1 L 142 -40.1 Q 140.9 -39.4 140 -37.9 L 140 -37.9 L 140 -37.9 Q 138.2 -34.5 138.2 -27.3 L 138.2 -27.3 Z M 181.4 -45.2 L 181.4 -45.2 L 181.4 -45.2 Q 182.2 -43.3 182.2 -41.4 L 182.2 -41.4 L 182.2 -41.4 Q 182.2 -39.5 182 -38.2 L 182 -38.2 L 182 -38.2 Q 181.9 -37 181.5 -35.8 L 181.5 -35.8 L 181.5 -35.8 Q 180.7 -33.2 179.3 -31.8 L 179.3 -31.8 L 179.3 -31.8 Q 178.3 -36.6 177.2 -38.1 L 177.2 -38.1 L 177.2 -38.1 Q 176 -39.5 174.9 -40 L 174.9 -40 L 174.9 -40 Q 173.8 -40.5 172.5 -40.5 L 172.5 -40.5 L 172.5 -40.5 Q 171.2 -40.5 170.4 -40.2 L 170.4 -40.2 L 170.4 -40.2 Q 169.6 -40 169 -39.5 L 169 -39.5 L 169 -39.5 Q 167.6 -38.5 167.6 -37.2 L 167.6 -37.2 L 167.6 -37.2 Q 167.6 -35.9 168.3 -34.9 L 168.3 -34.9 L 168.3 -34.9 Q 168.9 -34 170 -33.1 L 170 -33.1 L 170 -33.1 Q 171.1 -32.3 172.5 -31.5 L 172.5 -31.5 L 175.3 -29.9 L 175.3 -29.9 Q 178.9 -27.9 180.3 -26.6 L 180.3 -26.6 L 180.3 -26.6 Q 182.9 -23.9 182.9 -21 L 182.9 -21 L 182.9 -21 Q 182.9 -17.1 180.3 -14.5 L 180.3 -14.5 L 180.3 -14.5 Q 177 -11.1 170.4 -11.1 L 170.4 -11.1 L 170.4 -11.1 Q 164.3 -11.1 161.3 -13.9 L 161.3 -13.9 L 161.3 -13.9 Q 160.4 -14.7 160 -15.6 L 160 -15.6 L 160 -15.6 Q 160.3 -17.9 162.1 -20 L 162.1 -20 L 162.1 -20 Q 163.9 -22 165.6 -22.3 L 165.6 -22.3 L 165.6 -22.3 Q 165.5 -21.9 165.5 -21.1 L 165.5 -21.1 L 165.5 -21.1 Q 165.5 -20.2 165.9 -19 L 165.9 -19 L 165.9 -19 Q 166.4 -17.8 167.3 -16.8 L 167.3 -16.8 L 167.3 -16.8 Q 169.3 -14.4 171.7 -14.4 L 171.7 -14.4 L 171.7 -14.4 Q 174.2 -14.4 175.4 -15.6 L 175.4 -15.6 L 175.4 -15.6 Q 176.5 -16.7 176.5 -18.1 L 176.5 -18.1 L 176.5 -18.1 Q 176.5 -19.6 175.9 -20.5 L 175.9 -20.5 L 175.9 -20.5 Q 175.2 -21.5 174.1 -22.3 L 174.1 -22.3 L 174.1 -22.3 Q 173 -23.2 171.7 -24 L 171.7 -24 L 168.9 -25.6 L 168.9 -25.6 Q 165.3 -27.7 163.9 -29.2 L 163.9 -29.2 L 163.9 -29.2 Q 161.2 -32.2 161.2 -35.7 L 161.2 -35.7 L 161.2 -35.7 Q 161.2 -39.4 164.4 -41.7 L 164.4 -41.7 L 164.4 -41.7 Q 167.3 -43.9 171.8 -43.9 L 171.8 -43.9 L 177.3 -43.6 L 177.3 -43.6 Q 179.3 -43.6 180 -44 L 180 -44 L 180 -44 Q 180.8 -44.5 181.4 -45.2 Z M 231.8 -27 L 231.8 -27 L 231.8 -31.1 L 231.8 -31.1 Q 231.8 -34.6 231.1 -35.8 L 231.1 -35.8 L 231.1 -35.8 Q 230.4 -37 229.6 -37.5 L 229.6 -37.5 L 229.6 -37.5 Q 228.9 -38.1 227.8 -38.6 L 227.8 -38.6 L 241.5 -38.6 L 241.5 -38.6 Q 239.5 -36.8 239 -34 L 239 -34 L 239 -34 Q 238.5 -31.3 238.5 -25.7 L 238.5 -25.7 L 238.5 -25.7 Q 238.5 -14.7 239.8 -11.1 L 239.8 -11.1 L 239.8 -11.1 Q 239.4 -11.1 238.9 -11.1 L 238.9 -11.1 L 238.1 -11.1 L 238.1 -11.1 Q 224.4 -11.1 217.3 -19.9 L 217.3 -19.9 L 217.3 -19.9 Q 210.5 -28.4 210.5 -44 L 210.5 -44 L 210.5 -44 Q 210.5 -51.7 215 -55.7 L 215 -55.7 L 215 -55.7 Q 219.2 -59.6 226.2 -59.6 L 226.2 -59.6 L 231.7 -59.5 L 231.7 -59.5 Q 236.1 -59.5 237.8 -60.6 L 237.8 -60.6 L 237.8 -60.6 Q 238.5 -61 239 -61.7 L 239 -61.7 L 239 -61.7 Q 239.8 -60.2 239.8 -57.6 L 239.8 -57.6 L 239.8 -57.6 Q 239.8 -55 239.6 -53.4 L 239.6 -53.4 L 239.6 -53.4 Q 239.5 -51.8 239.2 -50.2 L 239.2 -50.2 L 239.2 -50.2 Q 238.5 -47 237.1 -45.2 L 237.1 -45.2 L 237.1 -45.2 Q 235.9 -51.4 234.2 -53.8 L 234.2 -53.8 L 234.2 -53.8 Q 232.2 -56.4 227.9 -56.4 L 227.9 -56.4 L 227.9 -56.4 Q 222.5 -56.4 220.3 -52.1 L 220.3 -52.1 L 220.3 -52.1 Q 218.7 -49 218.7 -42.6 L 218.7 -42.6 L 218.7 -42.6 Q 218.7 -33.8 221.4 -25.7 L 221.4 -25.7 L 221.4 -25.7 Q 223.4 -20.1 226.2 -17.7 L 226.2 -17.7 L 226.2 -17.7 Q 227.7 -16.4 229.2 -16.4 L 229.2 -16.4 L 229.2 -16.4 Q 230.8 -16.4 231.3 -17.3 L 231.3 -17.3 L 231.3 -17.3 Q 231.7 -18.2 231.7 -20.4 L 231.7 -20.4 L 231.7 -20.4 Q 231.8 -24.7 231.8 -27 Z M 269.8 -28.4 L 269.8 -28.4 L 269.7 -22.4 L 269.7 -22.4 Q 269.7 -16.8 270.7 -14.8 L 270.7 -14.8 L 270.7 -14.8 Q 271.4 -13.6 272.2 -12.9 L 272.2 -12.9 L 273.7 -11.7 L 264.6 -11.7 L 263.6 -15.4 L 263.6 -15.4 Q 260.1 -11.1 253.6 -11.1 L 253.6 -11.1 L 253.6 -11.1 Q 249.9 -11.1 247.6 -13.6 L 247.6 -13.6 L 247.6 -13.6 Q 245.6 -15.9 245.6 -18.9 L 245.6 -18.9 L 245.6 -18.9 Q 245.6 -22 247 -24.3 L 247 -24.3 L 247 -24.3 Q 248.5 -26.6 250.9 -28.1 L 250.9 -28.1 L 250.9 -28.1 Q 255.5 -31 262.6 -31.1 L 262.6 -31.1 L 262.6 -31.4 L 262.6 -31.4 Q 262.6 -39 260.3 -40.3 L 260.3 -40.3 L 260.3 -40.3 Q 259.4 -40.8 258.1 -40.8 L 258.1 -40.8 L 258.1 -40.8 Q 256.8 -40.8 255.5 -39.9 L 255.5 -39.9 L 255.5 -39.9 Q 254.2 -39.1 253.1 -37.7 L 253.1 -37.7 L 253.1 -37.7 Q 251 -34.9 250.1 -31.1 L 250.1 -31.1 L 250.1 -31.1 Q 247.3 -32.8 247.3 -37.5 L 247.3 -37.5 L 247.3 -37.5 Q 247.3 -39.4 247.8 -41.7 L 247.8 -41.7 L 247.8 -41.7 Q 249 -41.7 250 -42.1 L 250 -42.1 L 252.4 -42.8 L 252.4 -42.8 Q 256 -43.9 259.4 -43.9 L 259.4 -43.9 L 259.4 -43.9 Q 262.7 -43.9 264.7 -42.9 L 264.7 -42.9 L 264.7 -42.9 Q 266.8 -41.9 267.9 -40 L 267.9 -40 L 267.9 -40 Q 269.8 -36.6 269.8 -28.4 Z M 252.3 -18.3 L 252.3 -18.3 Q 252.3 -16.4 253.2 -15.3 L 253.2 -15.3 L 253.2 -15.3 Q 254.1 -14.2 255.4 -14.2 L 255.4 -14.2 L 255.4 -14.2 Q 256.8 -14.2 258 -14.9 L 258 -14.9 L 258 -14.9 Q 259.3 -15.7 260.3 -16.9 L 260.3 -16.9 L 260.3 -16.9 Q 262.6 -19.7 262.6 -23.4 L 262.6 -23.4 L 262.6 -28 L 262.6 -28 Q 258.3 -27.6 255.4 -25.1 L 255.4 -25.1 L 255.4 -25.1 Q 252.3 -22.4 252.3 -18.3 L 252.3 -18.3 Z M 287 -34.2 L 287 -26.1 L 287 -26.1 Q 287 -15.9 288.2 -11.7 L 288.2 -11.7 L 279 -11.7 L 279 -11.7 Q 279.9 -14.8 280.1 -18.9 L 280.1 -18.9 L 280.1 -18.9 Q 280.5 -28.9 280.5 -34.4 L 280.5 -34.4 L 280.5 -34.4 Q 280.5 -39.9 280.5 -41.8 L 280.5 -41.8 L 280.5 -41.8 Q 280.5 -43.7 280.4 -45.6 L 280.4 -45.6 L 280.4 -45.6 Q 280.3 -52.3 279.8 -54.1 L 279.8 -54.1 L 279.8 -54.1 Q 279.4 -55.9 279 -56.7 L 279 -56.7 L 279 -56.7 Q 278.6 -57.5 278.1 -58.1 L 278.1 -58.1 L 277 -59.6 L 288.4 -59.6 L 288.4 -59.6 Q 287.6 -56.4 287.4 -53.5 L 287.4 -53.5 L 287.4 -53.5 Q 287.3 -50.6 287.2 -48.4 L 287.2 -48.4 L 287.2 -48.4 Q 287.1 -46.2 287.1 -43.8 L 287.1 -43.8 L 287.1 -43.8 Q 287 -39.8 287 -34.2 L 287 -34.2 Z M 304.6 -34.2 L 304.5 -26.1 L 304.5 -26.1 Q 304.5 -15.9 305.8 -11.7 L 305.8 -11.7 L 296.5 -11.7 L 296.5 -11.7 Q 297.4 -14.8 297.6 -18.9 L 297.6 -18.9 L 297.6 -18.9 Q 298.1 -28.9 298.1 -34.4 L 298.1 -34.4 L 298.1 -34.4 Q 298.1 -39.9 298.1 -41.8 L 298.1 -41.8 L 298.1 -41.8 Q 298 -43.7 298 -45.6 L 298 -45.6 L 298 -45.6 Q 297.8 -52.3 297.4 -54.1 L 297.4 -54.1 L 297.4 -54.1 Q 296.9 -55.9 296.5 -56.7 L 296.5 -56.7 L 296.5 -56.7 Q 296.1 -57.5 295.6 -58.1 L 295.6 -58.1 L 294.6 -59.6 L 306 -59.6 L 306 -59.6 Q 305.1 -56.4 305 -53.5 L 305 -53.5 L 305 -53.5 Q 304.9 -50.6 304.8 -48.4 L 304.8 -48.4 L 304.8 -48.4 Q 304.7 -46.2 304.6 -43.8 L 304.6 -43.8 L 304.6 -43.8 Q 304.6 -39.8 304.6 -34.2 L 304.6 -34.2 Z M 335.3 -22.4 L 335.3 -22.4 L 335.3 -22.4 Q 336.4 -21.6 336.4 -19.8 L 336.4 -19.8 L 336.4 -19.8 Q 336.4 -17.9 335.9 -16.5 L 335.9 -16.5 L 335.9 -16.5 Q 335.4 -15.1 334.2 -13.9 L 334.2 -13.9 L 334.2 -13.9 Q 331.4 -11.1 325.6 -11.1 L 325.6 -11.1 L 325.6 -11.1 Q 318.9 -11.1 315.4 -16.1 L 315.4 -16.1 L 315.4 -16.1 Q 312.4 -20.5 312.4 -28 L 312.4 -28 L 312.4 -28 Q 312.4 -35.5 316.5 -39.8 L 316.5 -39.8 L 316.5 -39.8 Q 320.5 -43.9 327.3 -43.9 L 327.3 -43.9 L 327.3 -43.9 Q 332 -43.9 334.7 -41.2 L 334.7 -41.2 L 334.7 -41.2 Q 336.8 -39 336.8 -36.1 L 336.8 -36.1 L 336.8 -36.1 Q 336.8 -33.3 335.6 -31 L 335.6 -31 L 335.6 -31 Q 334.5 -28.7 332.4 -27 L 332.4 -27 L 332.4 -27 Q 327.9 -23.6 320 -23.4 L 320 -23.4 L 320 -23.4 Q 320.6 -17.1 323.9 -15 L 323.9 -15 L 323.9 -15 Q 325.1 -14.2 327.1 -14.2 L 327.1 -14.2 L 327.1 -14.2 Q 329 -14.2 331.3 -16.3 L 331.3 -16.3 L 331.3 -16.3 Q 333.5 -18.4 335.3 -22.4 Z M 319.8 -27.3 L 319.8 -26.4 L 319.8 -26.4 Q 329.7 -27 329.7 -35.9 L 329.7 -35.9 L 329.7 -35.9 Q 329.7 -39.3 327.7 -40.4 L 327.7 -40.4 L 327.7 -40.4 Q 327 -40.8 325.9 -40.8 L 325.9 -40.8 L 325.9 -40.8 Q 324.7 -40.8 323.6 -40.1 L 323.6 -40.1 L 323.6 -40.1 Q 322.4 -39.4 321.6 -37.9 L 321.6 -37.9 L 321.6 -37.9 Q 319.8 -34.5 319.8 -27.3 L 319.8 -27.3 Z M 353.3 -11.7 L 344.1 -11.7 L 344.1 -11.7 Q 345.5 -16.7 345.5 -28.7 L 345.5 -28.7 L 345.5 -28.7 Q 345.5 -37.3 344.1 -40.4 L 344.1 -40.4 L 344.1 -40.4 Q 343.6 -41.7 342.1 -43.3 L 342.1 -43.3 L 353.2 -43.3 L 353.2 -43.3 Q 352.7 -41.3 352.3 -37.9 L 352.3 -37.9 L 352.3 -37.9 Q 355.3 -41.6 360.5 -43.1 L 360.5 -43.1 L 360.5 -43.1 Q 362.8 -43.8 363.8 -45.2 L 363.8 -45.2 L 363.8 -45.2 Q 364.8 -42.7 364.8 -40.9 L 364.8 -40.9 L 364.8 -40.9 Q 364.8 -39.2 364.6 -37.6 L 364.6 -37.6 L 364.6 -37.6 Q 364.4 -36.1 364.1 -34.7 L 364.1 -34.7 L 364.1 -34.7 Q 363.3 -31.6 361.9 -29.9 L 361.9 -29.9 L 361.9 -29.9 Q 360.8 -36 358.3 -37 L 358.3 -37 L 358.3 -37 Q 355.5 -38.2 352.8 -33.7 L 352.8 -33.7 L 352.8 -33.7 Q 352.3 -32.7 351.9 -31.7 L 351.9 -31.7 L 351.9 -31.7 Q 351.9 -31 351.9 -30.2 L 351.9 -30.2 L 351.9 -30.2 Q 351.9 -29.5 351.9 -28.7 L 351.9 -28.7 L 351.9 -28.7 Q 351.9 -16.7 353.3 -11.7 L 353.3 -11.7 Z M 386.3 -21.2 L 386.3 -22.1 L 386.3 -29 L 386.3 -29 Q 386.3 -35.6 385.9 -37.6 L 385.9 -37.6 L 385.9 -37.6 Q 385.6 -39.6 385.4 -40.4 L 385.4 -40.4 L 385.4 -40.4 Q 385.2 -41.2 384.9 -41.8 L 384.9 -41.8 L 384.3 -43.3 L 393.5 -43.3 L 393.4 -41.9 L 393.4 -41.9 Q 393.2 -40.4 393.1 -37.5 L 393.1 -37.5 L 393 -32.7 L 393 -32.7 Q 392.9 -27.3 392.9 -22.5 L 392.9 -22.5 L 392.9 -22.5 Q 392.9 -17.8 392.3 -14.4 L 392.3 -14.4 L 392.3 -14.4 Q 391.7 -11 390.7 -8.5 L 390.7 -8.5 L 390.7 -8.5 Q 389.8 -5.9 388.5 -4 L 388.5 -4 L 388.5 -4 Q 387.3 -2.2 385.9 -0.9 L 385.9 -0.9 L 385.9 -0.9 Q 383.5 1.3 380.6 2.3 L 380.6 2.3 L 380.6 2.3 Q 379.9 2.1 379.4 1.4 L 379.4 1.4 L 379.4 1.4 Q 378.8 0.7 378.7 0.1 L 378.7 0.1 L 378.7 0.1 Q 381.4 -1.3 383.1 -4.2 L 383.1 -4.2 L 383.1 -4.2 Q 385.4 -8.3 386 -16.1 L 386 -16.1 L 386 -16.1 Q 382.4 -11.1 377.1 -11.1 L 377.1 -11.1 L 377.1 -11.1 Q 373.4 -11.1 371.3 -14.1 L 371.3 -14.1 L 371.3 -14.1 Q 369.4 -16.9 369.4 -21.9 L 369.4 -21.9 L 369.4 -26.1 L 369.4 -26.1 Q 369.4 -27.5 369.3 -29 L 369.3 -29 L 369.3 -31.8 L 369.3 -31.8 Q 369.3 -34.5 369.1 -36 L 369.1 -36 L 369.1 -36 Q 369 -37.6 368.8 -38.6 L 368.8 -38.6 L 368.8 -38.6 Q 368.6 -39.6 368.4 -40.4 L 368.4 -40.4 L 368.4 -40.4 Q 368.1 -41.2 367.8 -41.9 L 367.8 -41.9 L 367.1 -43.3 L 376.7 -43.3 L 376.7 -43.3 Q 375.9 -38.8 375.9 -26.4 L 375.9 -26.4 L 375.9 -26.4 Q 375.9 -21.3 376.4 -19.7 L 376.4 -19.7 L 376.4 -19.7 Q 376.9 -18 377.7 -17.2 L 377.7 -17.2 L 377.7 -17.2 Q 378.5 -16.4 379.8 -16.4 L 379.8 -16.4 L 379.8 -16.4 Q 381 -16.4 382 -16.8 L 382 -16.8 L 382 -16.8 Q 382.9 -17.2 383.7 -17.9 L 383.7 -17.9 L 383.7 -17.9 Q 385.2 -19.1 386.3 -21.2 L 386.3 -21.2 Z M 387.3 -23.8 L 387.4 -24.6 L 387.3 -23.8 Z" fill="#ff0000" stroke="#00ff00" stroke-width="1.8"></path></g></g><g transform="matrix(1.3,0,0,1.3,-72.2,-28.4)"><g transform="translate(47.3,107)"><path d="M -1.7 -59.6 L 9.1 -59.6 L 9.1 -59.6 Q 7.9 -56.7 7.7 -53.7 L 7.7 -53.7 L 7.7 -53.7 Q 7.5 -50.8 7.4 -48.7 L 7.4 -48.7 L 7.4 -48.7 Q 7.4 -46.6 7.3 -44.4 L 7.3 -44.4 L 7.3 -44.4 Q 7.2 -39.1 7.2 -34.8 L 7.2 -34.8 L 7.2 -34.8 Q 7.2 -17.1 8.5 -13.1 L 8.5 -13.1 L 8.5 -13.1 Q 8.7 -12.4 9.1 -11.7 L 9.1 -11.7 L -1.7 -11.7 L -1.7 -11.7 Q -0.7 -13.9 -0.6 -15.6 L -0.6 -15.6 L -0.6 -15.6 Q -0.4 -17.3 -0.2 -19.7 L -0.2 -19.7 L -0.2 -19.7 Q 0.2 -24.6 0.2 -31 L 0.2 -31 L 0.2 -31 Q 0.2 -37.4 0.1 -39.8 L 0.1 -39.8 L 0.1 -39.8 Q 0.1 -42.1 0 -44.4 L 0 -44.4 L 0 -44.4 Q -0.2 -55.3 -1.3 -58.3 L -1.3 -58.3 L -1.7 -59.6 Z M 27.5 -11.7 L 18.6 -11.7 L 18.6 -11.7 Q 20 -16.7 20 -28.7 L 20 -28.7 L 20 -28.7 Q 20 -37.3 18.5 -40.4 L 18.5 -40.4 L 18.5 -40.4 Q 18.1 -41.2 17.7 -41.9 L 17.7 -41.9 L 16.6 -43.3 L 27.5 -43.3 L 27.5 -43.3 Q 27 -41.5 26.9 -40.4 L 26.9 -40.4 L 26.6 -38.5 L 26.6 -38.5 Q 30.3 -43.9 35.9 -43.9 L 35.9 -43.9 L 35.9 -43.9 Q 41.5 -43.9 43.1 -37.8 L 43.1 -37.8 L 43.1 -37.8 Q 45.6 -42.1 49.7 -43.4 L 49.7 -43.4 L 49.7 -43.4 Q 51.1 -43.9 52.9 -43.9 L 52.9 -43.9 L 52.9 -43.9 Q 54.7 -43.9 56.1 -43.2 L 56.1 -43.2 L 56.1 -43.2 Q 57.6 -42.4 58.6 -41 L 58.6 -41 L 58.6 -41 Q 60.6 -38.2 60.6 -33.2 L 60.6 -33.2 L 60.6 -29.9 L 60.6 -29.9 Q 60.6 -20.3 60.8 -17.9 L 60.8 -17.9 L 60.8 -17.9 Q 61.1 -15.5 61.2 -14.7 L 61.2 -14.7 L 61.2 -14.7 Q 61.4 -13.3 61.9 -11.7 L 61.9 -11.7 L 52.6 -11.7 L 52.6 -11.7 Q 54 -16.5 54 -28.7 L 54 -28.7 L 54 -28.7 Q 54 -33.7 53.5 -35.4 L 53.5 -35.4 L 53.5 -35.4 Q 53 -37.1 52.2 -37.9 L 52.2 -37.9 L 52.2 -37.9 Q 51.4 -38.6 50 -38.6 L 50 -38.6 L 50 -38.6 Q 46 -38.6 43.6 -33.9 L 43.6 -33.9 L 43.6 -29.9 L 43.6 -29.9 Q 43.6 -20.3 43.9 -17.9 L 43.9 -17.9 L 43.9 -17.9 Q 44.2 -15.5 44.3 -14.7 L 44.3 -14.7 L 44.3 -14.7 Q 44.5 -13.3 44.9 -11.7 L 44.9 -11.7 L 35.7 -11.7 L 35.7 -11.7 Q 37.1 -16.6 37.1 -28.7 L 37.1 -28.7 L 37.1 -28.7 Q 37.1 -33.8 36.6 -35.4 L 36.6 -35.4 L 36.6 -35.4 Q 36.1 -37.1 35.3 -37.9 L 35.3 -37.9 L 35.3 -37.9 Q 34.5 -38.6 33.2 -38.6 L 33.2 -38.6 L 33.2 -38.6 Q 31.8 -38.6 30.7 -38.1 L 30.7 -38.1 L 30.7 -38.1 Q 29.6 -37.6 28.8 -36.7 L 28.8 -36.7 L 28.8 -36.7 Q 27.1 -35.1 26.2 -32.5 L 26.2 -32.5 L 26.2 -32.5 Q 26.1 -31.6 26.1 -30.6 L 26.1 -30.6 L 26.1 -28.7 L 26.1 -28.7 Q 26.1 -16.7 27.5 -11.7 L 27.5 -11.7 Z M 42.5 -30.6 L 42.6 -31.1 L 42.5 -30.6 Z M 92.7 -28.4 L 92.7 -28.4 L 92.6 -22.4 L 92.6 -22.4 Q 92.6 -16.8 93.6 -14.8 L 93.6 -14.8 L 93.6 -14.8 Q 94.3 -13.6 95.1 -12.9 L 95.1 -12.9 L 96.6 -11.7 L 87.5 -11.7 L 86.5 -15.4 L 86.5 -15.4 Q 83 -11.1 76.5 -11.1 L 76.5 -11.1 L 76.5 -11.1 Q 72.8 -11.1 70.5 -13.6 L 70.5 -13.6 L 70.5 -13.6 Q 68.5 -15.9 68.5 -18.9 L 68.5 -18.9 L 68.5 -18.9 Q 68.5 -22 69.9 -24.3 L 69.9 -24.3 L 69.9 -24.3 Q 71.4 -26.6 73.8 -28.1 L 73.8 -28.1 L 73.8 -28.1 Q 78.4 -31 85.5 -31.1 L 85.5 -31.1 L 85.5 -31.4 L 85.5 -31.4 Q 85.5 -39 83.2 -40.3 L 83.2 -40.3 L 83.2 -40.3 Q 82.4 -40.8 81 -40.8 L 81 -40.8 L 81 -40.8 Q 79.7 -40.8 78.4 -39.9 L 78.4 -39.9 L 78.4 -39.9 Q 77.1 -39.1 76 -37.7 L 76 -37.7 L 76 -37.7 Q 73.9 -34.9 73 -31.1 L 73 -31.1 L 73 -31.1 Q 70.2 -32.8 70.2 -37.5 L 70.2 -37.5 L 70.2 -37.5 Q 70.2 -39.4 70.7 -41.7 L 70.7 -41.7 L 70.7 -41.7 Q 71.9 -41.7 72.9 -42.1 L 72.9 -42.1 L 75.4 -42.8 L 75.4 -42.8 Q 78.9 -43.9 82.3 -43.9 L 82.3 -43.9 L 82.3 -43.9 Q 85.6 -43.9 87.6 -42.9 L 87.6 -42.9 L 87.6 -42.9 Q 89.7 -41.9 90.8 -40 L 90.8 -40 L 90.8 -40 Q 92.7 -36.6 92.7 -28.4 Z M 75.2 -18.3 L 75.2 -18.3 Q 75.2 -16.4 76.1 -15.3 L 76.1 -15.3 L 76.1 -15.3 Q 77 -14.2 78.4 -14.2 L 78.4 -14.2 L 78.4 -14.2 Q 79.7 -14.2 80.9 -14.9 L 80.9 -14.9 L 80.9 -14.9 Q 82.2 -15.7 83.2 -16.9 L 83.2 -16.9 L 83.2 -16.9 Q 85.5 -19.7 85.5 -23.4 L 85.5 -23.4 L 85.5 -28 L 85.5 -28 Q 81.2 -27.6 78.3 -25.1 L 78.3 -25.1 L 78.3 -25.1 Q 75.2 -22.4 75.2 -18.3 L 75.2 -18.3 Z M 117.2 -12.5 L 117.2 -12.5 L 117.2 -12.5 Q 114.2 -11.1 111.3 -11.1 L 111.3 -11.1 L 111.3 -11.1 Q 108.3 -11.1 106.4 -11.9 L 106.4 -11.9 L 106.4 -11.9 Q 104.4 -12.6 103.1 -14.1 L 103.1 -14.1 L 103.1 -14.1 Q 100.2 -17.1 100.2 -22.3 L 100.2 -22.3 L 100.2 -22.3 Q 100.2 -32.5 106 -38.2 L 106 -38.2 L 106 -38.2 Q 111.3 -43.3 118.6 -43.3 L 118.6 -43.3 L 125.7 -43.3 L 125.7 -43.3 Q 124.9 -40.3 124.7 -37.5 L 124.7 -37.5 L 124.7 -37.5 Q 124.6 -34.7 124.6 -32.9 L 124.6 -32.9 L 124.6 -32.9 Q 124.5 -31.2 124.5 -29.4 L 124.5 -29.4 L 124.5 -29.4 Q 124.4 -25.7 124.4 -22 L 124.4 -22 L 124.4 -22 Q 124.4 -18.2 123.8 -14.6 L 123.8 -14.6 L 123.8 -14.6 Q 123.2 -11.1 122.2 -8.4 L 122.2 -8.4 L 122.2 -8.4 Q 121.3 -5.8 120 -3.9 L 120 -3.9 L 120 -3.9 Q 118.7 -2 117.4 -0.7 L 117.4 -0.7 L 117.4 -0.7 Q 115.1 1.3 112.1 2.3 L 112.1 2.3 L 112.1 2.3 Q 111.5 2.1 110.9 1.4 L 110.9 1.4 L 110.9 1.4 Q 110.4 0.8 110.2 0.1 L 110.2 0.1 L 110.2 0.1 Q 113.8 -1.3 115.9 -7 L 115.9 -7 L 115.9 -7 Q 116.7 -9.2 117.2 -12.5 Z M 117.9 -22.2 L 117.9 -22.2 L 118 -31.6 L 118 -31.6 Q 118 -37.2 117.6 -40.1 L 117.6 -40.1 L 117.6 -40.1 Q 113.2 -39.2 110.6 -34.9 L 110.6 -34.9 L 110.6 -34.9 Q 108 -30.4 108 -23.6 L 108 -23.6 L 108 -23.6 Q 108 -19.4 108.6 -17.6 L 108.6 -17.6 L 108.6 -17.6 Q 109.3 -15.9 110.2 -15.1 L 110.2 -15.1 L 110.2 -15.1 Q 111.1 -14.2 112.3 -14.2 L 112.3 -14.2 L 112.3 -14.2 Q 113.6 -14.2 114.6 -14.7 L 114.6 -14.7 L 114.6 -14.7 Q 115.5 -15.2 116.3 -16.2 L 116.3 -16.2 L 116.3 -16.2 Q 117.9 -18.4 117.9 -22.2 Z M 153.7 -22.4 L 153.7 -22.4 L 153.7 -22.4 Q 154.9 -21.6 154.9 -19.8 L 154.9 -19.8 L 154.9 -19.8 Q 154.9 -17.9 154.4 -16.5 L 154.4 -16.5 L 154.4 -16.5 Q 153.9 -15.1 152.6 -13.9 L 152.6 -13.9 L 152.6 -13.9 Q 149.8 -11.1 144 -11.1 L 144 -11.1 L 144 -11.1 Q 137.4 -11.1 133.9 -16.1 L 133.9 -16.1 L 133.9 -16.1 Q 130.8 -20.5 130.8 -28 L 130.8 -28 L 130.8 -28 Q 130.8 -35.5 134.9 -39.8 L 134.9 -39.8 L 134.9 -39.8 Q 138.9 -43.9 145.7 -43.9 L 145.7 -43.9 L 145.7 -43.9 Q 150.4 -43.9 153.1 -41.2 L 153.1 -41.2 L 153.1 -41.2 Q 155.2 -39 155.2 -36.1 L 155.2 -36.1 L 155.2 -36.1 Q 155.2 -33.3 154.1 -31 L 154.1 -31 L 154.1 -31 Q 152.9 -28.7 150.8 -27 L 150.8 -27 L 150.8 -27 Q 146.4 -23.6 138.4 -23.4 L 138.4 -23.4 L 138.4 -23.4 Q 139 -17.1 142.3 -15 L 142.3 -15 L 142.3 -15 Q 143.5 -14.2 145.5 -14.2 L 145.5 -14.2 L 145.5 -14.2 Q 147.4 -14.2 149.7 -16.3 L 149.7 -16.3 L 149.7 -16.3 Q 151.9 -18.4 153.7 -22.4 Z M 138.2 -27.3 L 138.2 -26.4 L 138.2 -26.4 Q 148.1 -27 148.1 -35.9 L 148.1 -35.9 L 148.1 -35.9 Q 148.1 -39.3 146.1 -40.4 L 146.1 -40.4 L 146.1 -40.4 Q 145.4 -40.8 144.3 -40.8 L 144.3 -40.8 L 144.3 -40.8 Q 143.1 -40.8 142 -40.1 L 142 -40.1 L 142 -40.1 Q 140.9 -39.4 140 -37.9 L 140 -37.9 L 140 -37.9 Q 138.2 -34.5 138.2 -27.3 L 138.2 -27.3 Z M 181.4 -45.2 L 181.4 -45.2 L 181.4 -45.2 Q 182.2 -43.3 182.2 -41.4 L 182.2 -41.4 L 182.2 -41.4 Q 182.2 -39.5 182 -38.2 L 182 -38.2 L 182 -38.2 Q 181.9 -37 181.5 -35.8 L 181.5 -35.8 L 181.5 -35.8 Q 180.7 -33.2 179.3 -31.8 L 179.3 -31.8 L 179.3 -31.8 Q 178.3 -36.6 177.2 -38.1 L 177.2 -38.1 L 177.2 -38.1 Q 176 -39.5 174.9 -40 L 174.9 -40 L 174.9 -40 Q 173.8 -40.5 172.5 -40.5 L 172.5 -40.5 L 172.5 -40.5 Q 171.2 -40.5 170.4 -40.2 L 170.4 -40.2 L 170.4 -40.2 Q 169.6 -40 169 -39.5 L 169 -39.5 L 169 -39.5 Q 167.6 -38.5 167.6 -37.2 L 167.6 -37.2 L 167.6 -37.2 Q 167.6 -35.9 168.3 -34.9 L 168.3 -34.9 L 168.3 -34.9 Q 168.9 -34 170 -33.1 L 170 -33.1 L 170 -33.1 Q 171.1 -32.3 172.5 -31.5 L 172.5 -31.5 L 175.3 -29.9 L 175.3 -29.9 Q 178.9 -27.9 180.3 -26.6 L 180.3 -26.6 L 180.3 -26.6 Q 182.9 -23.9 182.9 -21 L 182.9 -21 L 182.9 -21 Q 182.9 -17.1 180.3 -14.5 L 180.3 -14.5 L 180.3 -14.5 Q 177 -11.1 170.4 -11.1 L 170.4 -11.1 L 170.4 -11.1 Q 164.3 -11.1 161.3 -13.9 L 161.3 -13.9 L 161.3 -13.9 Q 160.4 -14.7 160 -15.6 L 160 -15.6 L 160 -15.6 Q 160.3 -17.9 162.1 -20 L 162.1 -20 L 162.1 -20 Q 163.9 -22 165.6 -22.3 L 165.6 -22.3 L 165.6 -22.3 Q 165.5 -21.9 165.5 -21.1 L 165.5 -21.1 L 165.5 -21.1 Q 165.5 -20.2 165.9 -19 L 165.9 -19 L 165.9 -19 Q 166.4 -17.8 167.3 -16.8 L 167.3 -16.8 L 167.3 -16.8 Q 169.3 -14.4 171.7 -14.4 L 171.7 -14.4 L 171.7 -14.4 Q 174.2 -14.4 175.4 -15.6 L 175.4 -15.6 L 175.4 -15.6 Q 176.5 -16.7 176.5 -18.1 L 176.5 -18.1 L 176.5 -18.1 Q 176.5 -19.6 175.9 -20.5 L 175.9 -20.5 L 175.9 -20.5 Q 175.2 -21.5 174.1 -22.3 L 174.1 -22.3 L 174.1 -22.3 Q 173 -23.2 171.7 -24 L 171.7 -24 L 168.9 -25.6 L 168.9 -25.6 Q 165.3 -27.7 163.9 -29.2 L 163.9 -29.2 L 163.9 -29.2 Q 161.2 -32.2 161.2 -35.7 L 161.2 -35.7 L 161.2 -35.7 Q 161.2 -39.4 164.4 -41.7 L 164.4 -41.7 L 164.4 -41.7 Q 167.3 -43.9 171.8 -43.9 L 171.8 -43.9 L 177.3 -43.6 L 177.3 -43.6 Q 179.3 -43.6 180 -44 L 180 -44 L 180 -44 Q 180.8 -44.5 181.4 -45.2 Z M 231.8 -27 L 231.8 -27 L 231.8 -31.1 L 231.8 -31.1 Q 231.8 -34.6 231.1 -35.8 L 231.1 -35.8 L 231.1 -35.8 Q 230.4 -37 229.6 -37.5 L 229.6 -37.5 L 229.6 -37.5 Q 228.9 -38.1 227.8 -38.6 L 227.8 -38.6 L 241.5 -38.6 L 241.5 -38.6 Q 239.5 -36.8 239 -34 L 239 -34 L 239 -34 Q 238.5 -31.3 238.5 -25.7 L 238.5 -25.7 L 238.5 -25.7 Q 238.5 -14.7 239.8 -11.1 L 239.8 -11.1 L 239.8 -11.1 Q 239.4 -11.1 238.9 -11.1 L 238.9 -11.1 L 238.1 -11.1 L 238.1 -11.1 Q 224.4 -11.1 217.3 -19.9 L 217.3 -19.9 L 217.3 -19.9 Q 210.5 -28.4 210.5 -44 L 210.5 -44 L 210.5 -44 Q 210.5 -51.7 215 -55.7 L 215 -55.7 L 215 -55.7 Q 219.2 -59.6 226.2 -59.6 L 226.2 -59.6 L 231.7 -59.5 L 231.7 -59.5 Q 236.1 -59.5 237.8 -60.6 L 237.8 -60.6 L 237.8 -60.6 Q 238.5 -61 239 -61.7 L 239 -61.7 L 239 -61.7 Q 239.8 -60.2 239.8 -57.6 L 239.8 -57.6 L 239.8 -57.6 Q 239.8 -55 239.6 -53.4 L 239.6 -53.4 L 239.6 -53.4 Q 239.5 -51.8 239.2 -50.2 L 239.2 -50.2 L 239.2 -50.2 Q 238.5 -47 237.1 -45.2 L 237.1 -45.2 L 237.1 -45.2 Q 235.9 -51.4 234.2 -53.8 L 234.2 -53.8 L 234.2 -53.8 Q 232.2 -56.4 227.9 -56.4 L 227.9 -56.4 L 227.9 -56.4 Q 222.5 -56.4 220.3 -52.1 L 220.3 -52.1 L 220.3 -52.1 Q 218.7 -49 218.7 -42.6 L 218.7 -42.6 L 218.7 -42.6 Q 218.7 -33.8 221.4 -25.7 L 221.4 -25.7 L 221.4 -25.7 Q 223.4 -20.1 226.2 -17.7 L 226.2 -17.7 L 226.2 -17.7 Q 227.7 -16.4 229.2 -16.4 L 229.2 -16.4 L 229.2 -16.4 Q 230.8 -16.4 231.3 -17.3 L 231.3 -17.3 L 231.3 -17.3 Q 231.7 -18.2 231.7 -20.4 L 231.7 -20.4 L 231.7 -20.4 Q 231.8 -24.7 231.8 -27 Z M 269.8 -28.4 L 269.8 -28.4 L 269.7 -22.4 L 269.7 -22.4 Q 269.7 -16.8 270.7 -14.8 L 270.7 -14.8 L 270.7 -14.8 Q 271.4 -13.6 272.2 -12.9 L 272.2 -12.9 L 273.7 -11.7 L 264.6 -11.7 L 263.6 -15.4 L 263.6 -15.4 Q 260.1 -11.1 253.6 -11.1 L 253.6 -11.1 L 253.6 -11.1 Q 249.9 -11.1 247.6 -13.6 L 247.6 -13.6 L 247.6 -13.6 Q 245.6 -15.9 245.6 -18.9 L 245.6 -18.9 L 245.6 -18.9 Q 245.6 -22 247 -24.3 L 247 -24.3 L 247 -24.3 Q 248.5 -26.6 250.9 -28.1 L 250.9 -28.1 L 250.9 -28.1 Q 255.5 -31 262.6 -31.1 L 262.6 -31.1 L 262.6 -31.4 L 262.6 -31.4 Q 262.6 -39 260.3 -40.3 L 260.3 -40.3 L 260.3 -40.3 Q 259.4 -40.8 258.1 -40.8 L 258.1 -40.8 L 258.1 -40.8 Q 256.8 -40.8 255.5 -39.9 L 255.5 -39.9 L 255.5 -39.9 Q 254.2 -39.1 253.1 -37.7 L 253.1 -37.7 L 253.1 -37.7 Q 251 -34.9 250.1 -31.1 L 250.1 -31.1 L 250.1 -31.1 Q 247.3 -32.8 247.3 -37.5 L 247.3 -37.5 L 247.3 -37.5 Q 247.3 -39.4 247.8 -41.7 L 247.8 -41.7 L 247.8 -41.7 Q 249 -41.7 250 -42.1 L 250 -42.1 L 252.4 -42.8 L 252.4 -42.8 Q 256 -43.9 259.4 -43.9 L 259.4 -43.9 L 259.4 -43.9 Q 262.7 -43.9 264.7 -42.9 L 264.7 -42.9 L 264.7 -42.9 Q 266.8 -41.9 267.9 -40 L 267.9 -40 L 267.9 -40 Q 269.8 -36.6 269.8 -28.4 Z M 252.3 -18.3 L 252.3 -18.3 Q 252.3 -16.4 253.2 -15.3 L 253.2 -15.3 L 253.2 -15.3 Q 254.1 -14.2 255.4 -14.2 L 255.4 -14.2 L 255.4 -14.2 Q 256.8 -14.2 258 -14.9 L 258 -14.9 L 258 -14.9 Q 259.3 -15.7 260.3 -16.9 L 260.3 -16.9 L 260.3 -16.9 Q 262.6 -19.7 262.6 -23.4 L 262.6 -23.4 L 262.6 -28 L 262.6 -28 Q 258.3 -27.6 255.4 -25.1 L 255.4 -25.1 L 255.4 -25.1 Q 252.3 -22.4 252.3 -18.3 L 252.3 -18.3 Z M 287 -34.2 L 287 -26.1 L 287 -26.1 Q 287 -15.9 288.2 -11.7 L 288.2 -11.7 L 279 -11.7 L 279 -11.7 Q 279.9 -14.8 280.1 -18.9 L 280.1 -18.9 L 280.1 -18.9 Q 280.5 -28.9 280.5 -34.4 L 280.5 -34.4 L 280.5 -34.4 Q 280.5 -39.9 280.5 -41.8 L 280.5 -41.8 L 280.5 -41.8 Q 280.5 -43.7 280.4 -45.6 L 280.4 -45.6 L 280.4 -45.6 Q 280.3 -52.3 279.8 -54.1 L 279.8 -54.1 L 279.8 -54.1 Q 279.4 -55.9 279 -56.7 L 279 -56.7 L 279 -56.7 Q 278.6 -57.5 278.1 -58.1 L 278.1 -58.1 L 277 -59.6 L 288.4 -59.6 L 288.4 -59.6 Q 287.6 -56.4 287.4 -53.5 L 287.4 -53.5 L 287.4 -53.5 Q 287.3 -50.6 287.2 -48.4 L 287.2 -48.4 L 287.2 -48.4 Q 287.1 -46.2 287.1 -43.8 L 287.1 -43.8 L 287.1 -43.8 Q 287 -39.8 287 -34.2 L 287 -34.2 Z M 304.6 -34.2 L 304.5 -26.1 L 304.5 -26.1 Q 304.5 -15.9 305.8 -11.7 L 305.8 -11.7 L 296.5 -11.7 L 296.5 -11.7 Q 297.4 -14.8 297.6 -18.9 L 297.6 -18.9 L 297.6 -18.9 Q 298.1 -28.9 298.1 -34.4 L 298.1 -34.4 L 298.1 -34.4 Q 298.1 -39.9 298.1 -41.8 L 298.1 -41.8 L 298.1 -41.8 Q 298 -43.7 298 -45.6 L 298 -45.6 L 298 -45.6 Q 297.8 -52.3 297.4 -54.1 L 297.4 -54.1 L 297.4 -54.1 Q 296.9 -55.9 296.5 -56.7 L 296.5 -56.7 L 296.5 -56.7 Q 296.1 -57.5 295.6 -58.1 L 295.6 -58.1 L 294.6 -59.6 L 306 -59.6 L 306 -59.6 Q 305.1 -56.4 305 -53.5 L 305 -53.5 L 305 -53.5 Q 304.9 -50.6 304.8 -48.4 L 304.8 -48.4 L 304.8 -48.4 Q 304.7 -46.2 304.6 -43.8 L 304.6 -43.8 L 304.6 -43.8 Q 304.6 -39.8 304.6 -34.2 L 304.6 -34.2 Z M 335.3 -22.4 L 335.3 -22.4 L 335.3 -22.4 Q 336.4 -21.6 336.4 -19.8 L 336.4 -19.8 L 336.4 -19.8 Q 336.4 -17.9 335.9 -16.5 L 335.9 -16.5 L 335.9 -16.5 Q 335.4 -15.1 334.2 -13.9 L 334.2 -13.9 L 334.2 -13.9 Q 331.4 -11.1 325.6 -11.1 L 325.6 -11.1 L 325.6 -11.1 Q 318.9 -11.1 315.4 -16.1 L 315.4 -16.1 L 315.4 -16.1 Q 312.4 -20.5 312.4 -28 L 312.4 -28 L 312.4 -28 Q 312.4 -35.5 316.5 -39.8 L 316.5 -39.8 L 316.5 -39.8 Q 320.5 -43.9 327.3 -43.9 L 327.3 -43.9 L 327.3 -43.9 Q 332 -43.9 334.7 -41.2 L 334.7 -41.2 L 334.7 -41.2 Q 336.8 -39 336.8 -36.1 L 336.8 -36.1 L 336.8 -36.1 Q 336.8 -33.3 335.6 -31 L 335.6 -31 L 335.6 -31 Q 334.5 -28.7 332.4 -27 L 332.4 -27 L 332.4 -27 Q 327.9 -23.6 320 -23.4 L 320 -23.4 L 320 -23.4 Q 320.6 -17.1 323.9 -15 L 323.9 -15 L 323.9 -15 Q 325.1 -14.2 327.1 -14.2 L 327.1 -14.2 L 327.1 -14.2 Q 329 -14.2 331.3 -16.3 L 331.3 -16.3 L 331.3 -16.3 Q 333.5 -18.4 335.3 -22.4 Z M 319.8 -27.3 L 319.8 -26.4 L 319.8 -26.4 Q 329.7 -27 329.7 -35.9 L 329.7 -35.9 L 329.7 -35.9 Q 329.7 -39.3 327.7 -40.4 L 327.7 -40.4 L 327.7 -40.4 Q 327 -40.8 325.9 -40.8 L 325.9 -40.8 L 325.9 -40.8 Q 324.7 -40.8 323.6 -40.1 L 323.6 -40.1 L 323.6 -40.1 Q 322.4 -39.4 321.6 -37.9 L 321.6 -37.9 L 321.6 -37.9 Q 319.8 -34.5 319.8 -27.3 L 319.8 -27.3 Z M 353.3 -11.7 L 344.1 -11.7 L 344.1 -11.7 Q 345.5 -16.7 345.5 -28.7 L 345.5 -28.7 L 345.5 -28.7 Q 345.5 -37.3 344.1 -40.4 L 344.1 -40.4 L 344.1 -40.4 Q 343.6 -41.7 342.1 -43.3 L 342.1 -43.3 L 353.2 -43.3 L 353.2 -43.3 Q 352.7 -41.3 352.3 -37.9 L 352.3 -37.9 L 352.3 -37.9 Q 355.3 -41.6 360.5 -43.1 L 360.5 -43.1 L 360.5 -43.1 Q 362.8 -43.8 363.8 -45.2 L 363.8 -45.2 L 363.8 -45.2 Q 364.8 -42.7 364.8 -40.9 L 364.8 -40.9 L 364.8 -40.9 Q 364.8 -39.2 364.6 -37.6 L 364.6 -37.6 L 364.6 -37.6 Q 364.4 -36.1 364.1 -34.7 L 364.1 -34.7 L 364.1 -34.7 Q 363.3 -31.6 361.9 -29.9 L 361.9 -29.9 L 361.9 -29.9 Q 360.8 -36 358.3 -37 L 358.3 -37 L 358.3 -37 Q 355.5 -38.2 352.8 -33.7 L 352.8 -33.7 L 352.8 -33.7 Q 352.3 -32.7 351.9 -31.7 L 351.9 -31.7 L 351.9 -31.7 Q 351.9 -31 351.9 -30.2 L 351.9 -30.2 L 351.9 -30.2 Q 351.9 -29.5 351.9 -28.7 L 351.9 -28.7 L 351.9 -28.7 Q 351.9 -16.7 353.3 -11.7 L 353.3 -11.7 Z M 386.3 -21.2 L 386.3 -22.1 L 386.3 -29 L 386.3 -29 Q 386.3 -35.6 385.9 -37.6 L 385.9 -37.6 L 385.9 -37.6 Q 385.6 -39.6 385.4 -40.4 L 385.4 -40.4 L 385.4 -40.4 Q 385.2 -41.2 384.9 -41.8 L 384.9 -41.8 L 384.3 -43.3 L 393.5 -43.3 L 393.4 -41.9 L 393.4 -41.9 Q 393.2 -40.4 393.1 -37.5 L 393.1 -37.5 L 393 -32.7 L 393 -32.7 Q 392.9 -27.3 392.9 -22.5 L 392.9 -22.5 L 392.9 -22.5 Q 392.9 -17.8 392.3 -14.4 L 392.3 -14.4 L 392.3 -14.4 Q 391.7 -11 390.7 -8.5 L 390.7 -8.5 L 390.7 -8.5 Q 389.8 -5.9 388.5 -4 L 388.5 -4 L 388.5 -4 Q 387.3 -2.2 385.9 -0.9 L 385.9 -0.9 L 385.9 -0.9 Q 383.5 1.3 380.6 2.3 L 380.6 2.3 L 380.6 2.3 Q 379.9 2.1 379.4 1.4 L 379.4 1.4 L 379.4 1.4 Q 378.8 0.7 378.7 0.1 L 378.7 0.1 L 378.7 0.1 Q 381.4 -1.3 383.1 -4.2 L 383.1 -4.2 L 383.1 -4.2 Q 385.4 -8.3 386 -16.1 L 386 -16.1 L 386 -16.1 Q 382.4 -11.1 377.1 -11.1 L 377.1 -11.1 L 377.1 -11.1 Q 373.4 -11.1 371.3 -14.1 L 371.3 -14.1 L 371.3 -14.1 Q 369.4 -16.9 369.4 -21.9 L 369.4 -21.9 L 369.4 -26.1 L 369.4 -26.1 Q 369.4 -27.5 369.3 -29 L 369.3 -29 L 369.3 -31.8 L 369.3 -31.8 Q 369.3 -34.5 369.1 -36 L 369.1 -36 L 369.1 -36 Q 369 -37.6 368.8 -38.6 L 368.8 -38.6 L 368.8 -38.6 Q 368.6 -39.6 368.4 -40.4 L 368.4 -40.4 L 368.4 -40.4 Q 368.1 -41.2 367.8 -41.9 L 367.8 -41.9 L 367.1 -43.3 L 376.7 -43.3 L 376.7 -43.3 Q 375.9 -38.8 375.9 -26.4 L 375.9 -26.4 L 375.9 -26.4 Q 375.9 -21.3 376.4 -19.7 L 376.4 -19.7 L 376.4 -19.7 Q 376.9 -18 377.7 -17.2 L 377.7 -17.2 L 377.7 -17.2 Q 378.5 -16.4 379.8 -16.4 L 379.8 -16.4 L 379.8 -16.4 Q 381 -16.4 382 -16.8 L 382 -16.8 L 382 -16.8 Q 382.9 -17.2 383.7 -17.9 L 383.7 -17.9 L 383.7 -17.9 Q 385.2 -19.1 386.3 -21.2 L 386.3 -21.2 Z M 387.3 -23.8 L 387.4 -24.6 L 387.3 -23.8 Z" fill="none" stroke="#f4f4f4" stroke-width="2.1"></path></g></g></g><style>text {
  font-size: 64px;
  font-family: Arial Black;
  dominant-baseline: central;
  text-anchor: middle;
}</style>
    <ellipse cx="333" cy="57" rx="0" ry="0" fill="rgb(255, 255, 255)"/></svg>