<?xml version="1.0" standalone="no"?>
<!DOCTYPE svg PUBLIC "-//W3C//DTD SVG 20010904//EN"
 "http://www.w3.org/TR/2001/REC-SVG-20010904/DTD/svg10.dtd">
<svg version="1" xmlns="http://www.w3.org/2000/svg"
 width="612pt" height="132pt" viewBox="0 0 612 132"
 preserveAspectRatio="xMidYMid meet">

<g transform="matrix(0.1,0,0,-0.1,0,132)"
fill="#000000" stroke="none">
<path transform="matrix(1.3,0,0,1.2,-227.2,-54.6)" d="M 510.7 776.3 c -3 -5 -2 -12 2 -14 c 5 -3 7 -44 5 -91 l -3 -86 l -32 -1 l -32 -2 l 30 -4 c 53 -8 56 -43 4 -43 c -19 0 -29 -5 -29 -15 c 0 -10 10 -15 30 -15 c 17 0 30 -6 31 -12 c 1 -7 2 -52 3 -100 l 1 -88 l -32 0 c -20 0 -33 5 -33 13 c 0 8 -3 7 -9 -3 c -6 -8 -7 -18 -5 -22 c 8 -12 69 -9 82 4 c 9 9 12 78 12 250 c 0 217 -5 261 -25 229 z"/>
<path transform="matrix(1.3,0,0,1.2,-870.2,-66)" d="M 3350 787 c -9 -2 1 -13 26 -28 c 62 -37 79 -106 36 -148 c -8 -9 -11 -16 -6 -16 c 5 0 17 9 28 21 c 26 29 26 100 -1 129 c -25 28 -66 49 -83 42 z"/>
<path transform="matrix(1.3,0,0,1.2,-1023.8,-51.2)" d="M 4055.4 773.3 c -3 -6 -1 -11 5 -11 c 7 0 10 -52 9 -157 c -2 -315 0 -350 17 -367 c 17 -18 54 -22 54 -6 c 0 6 -9 10 -20 10 c -11 0 -21 1 -22 3 c -1 1 -5 121 -8 266 c -3 187 -8 265 -17 268 c -6 2 -14 -1 -18 -6 z"/>
<path transform="matrix(1.3,0,0,1.2,-1060.5,-50.7)" d="M 4286.6 775.9 c -3 -3 -2 -16 2 -28 c 4 -11 7 -120 6 -241 c -1 -121 3 -232 7 -246 c 5 -15 19 -31 31 -37 c 19 -9 19 -11 4 -11 c -10 -1 -44 24 -76 54 c -41 39 -66 55 -85 55 c -16 0 -25 -4 -21 -10 c 3 -6 15 -10 25 -10 c 11 0 33 -18 51 -39 c 17 -22 47 -47 66 -56 c 34 -16 36 -16 57 4 l 21 22 l -23 6 c -13 3 -28 17 -33 30 c -5 13 -9 134 -9 269 c 0 221 -3 257 -23 238 z"/>
<path transform="matrix(1.3,0,0,1.2,-842,-56.7)" d="M 3249.6 756 c -40 -11 -58 -33 -78 -92 c -35 -104 -9 -235 54 -276 l 24 -16 l -21 35 c -48 76 -55 102 -51 180 c 3 41 11 88 19 105 c 26 55 98 69 146 27 c 10 -9 30 -23 43 -31 c 24 -14 24 -14 9 10 c -34 51 -90 73 -145 58 z"/>
<path transform="matrix(1.3,0,0,1.2,-197.5,-66.9)" d="M 339 753.8 c -9 -7 -17 -20 -19 -28 c -2 -8 -9 -20 -16 -25 c -18 -15 -4 -44 24 -51 c 25 -6 74 18 74 37 c 0 6 -7 3 -16 -5 c -20 -20 -48 -20 -64 0 c -11 12 -11 15 1 12 c 9 -2 14 6 14 22 c 0 20 6 26 30 28 c 17 2 34 8 40 13 c 14 14 -49 11 -68 -3 z"/>
<path transform="matrix(1.3,0,0,1.2,-853,-61.7)" d="M 3328.3 655.4 c -5 -26 -3 -39 7 -45 c 9 -6 10 -9 2 -9 c -7 0 -16 7 -21 16 c -7 12 -11 13 -17 4 c -4 -7 0 -19 9 -28 c 23 -23 38 -4 40 52 c 2 55 -10 61 -20 10 z"/>
<path transform="matrix(1.3,0,0,1.2,-1234.1,-60.7)" d="M 5034.9 633.5 c -3 -5 3 -14 13 -20 c 15 -10 18 -9 16 4 c -3 19 -21 29 -29 16 z"/>
<path transform="matrix(1.3,0,0,1.2,-1280.6,-49.6)" d="M 5216 621 c -10 -5 -9 -9 3 -13 c 30 -12 47 -54 52 -133 c 7 -110 12 -140 29 -154 c 12 -10 13 -8 8 12 c -3 12 -9 69 -14 125 c -10 129 -39 188 -78 163 z"/>
<path transform="matrix(1.3,0,0,1.2,-1305.2,-40.4)" d="M 5444.6 608.1 c -7 -8 -21 -15 -31 -15 c -10 0 -26 -11 -35 -25 c -14 -21 -15 -31 -6 -50 c 13 -29 5 -33 -15 -7 c -12 16 -13 15 -11 -8 c 4 -30 49 -50 76 -34 c 21 14 30 48 10 41 c -7 -2 -12 -10 -10 -16 c 1 -6 -6 -11 -17 -11 c -15 0 -18 7 -17 42 c 1 51 22 60 63 29 c 35 -28 40 -19 12 21 c -16 23 -18 29 -6 19 c 10 -8 23 -23 29 -34 c 15 -28 22 -305 9 -354 c -10 -36 -17 -43 -62 -63 c -33 -14 -62 -20 -78 -16 c -14 4 -37 8 -51 10 c -13 2 -37 18 -53 36 l -29 32 l 4 -28 c 7 -62 143 -92 217 -49 c 72 42 76 56 75 248 c 0 102 -5 183 -12 199 c -15 36 -46 53 -62 33 z"/>
<path transform="matrix(1.3,0,0,1.2,-272.1,-59.5)" d="M 702.5 620.5 c -11 -7 -10 -10 5 -14 c 12 -3 7 -5 -13 -6 c -44 -1 -53 -21 -10 -21 c 26 0 36 5 45 25 c 12 27 1 34 -27 16 z"/>
<path transform="matrix(1.3,0,0,1.2,-328.2,-47.7)" d="M 879.2 608.3 c -22 -6 -53 -22 -68 -37 c -29 -29 -29 -29 -75 -31 c -41 -1 -39 -27 3 -36 c 17 -4 38 -12 45 -17 c 9 -8 12 -4 12 14 c 0 40 27 68 65 68 c 31 0 35 -3 41 -35 c 6 -33 9 -35 44 -35 c 33 0 37 -3 33 -20 c -4 -15 -14 -20 -39 -20 c -19 0 -34 -5 -34 -11 c 0 -6 14 -9 35 -6 l 35 5 l 0 -75 l 0 -76 l -40 6 c -30 4 -40 2 -40 -9 c 0 -21 63 -18 83 4 c 12 13 17 37 17 75 c 0 49 3 57 18 57 c 11 0 26 8 35 18 c 20 22 23 39 3 23 c -14 -12 -51 -10 -63 4 c -5 4 -2 5 5 1 c 8 -5 12 2 12 27 c 0 40 25 67 64 67 c 18 0 29 -7 36 -22 c 7 -19 9 -20 9 -5 c 1 24 54 20 59 -5 c 2 -12 -5 -18 -30 -21 l -33 -4 l 33 -1 c 27 -2 32 -6 32 -27 c 0 -21 -5 -25 -30 -25 c -16 0 -30 -4 -30 -10 c 0 -5 14 -10 30 -10 c 32 0 44 -29 13 -31 c -15 0 -15 -2 2 -8 l 20 -8 l -20 -5 c -15 -4 -15 -6 -4 -7 c 12 -1 18 -13 21 -41 c 3 -39 3 -40 -29 -40 c -20 0 -33 5 -33 13 c 0 8 -3 7 -9 -3 c -14 -21 -4 -30 33 -30 c 52 0 56 11 56 149 c 0 179 -17 205 -113 177 c -44 -13 -62 -24 -76 -46 c -10 -17 -21 -27 -25 -23 c -4 4 -23 6 -42 4 c -19 -1 -34 2 -34 8 c 0 6 14 11 31 11 c 27 0 30 3 27 28 c -3 31 -21 35 -85 21 z"/>
<path transform="matrix(1.3,0,0,1.2,-445.8,-46.9)" d="M 1484.9 611.7 c -22 -2 -50 -6 -62 -8 c -30 -7 -86 -62 -72 -71 c 6 -3 22 5 35 20 c 17 18 35 26 57 26 c 35 0 87 -20 87 -33 c 0 -4 9 -3 21 3 c 15 9 24 8 35 -1 c 22 -18 17 -29 -16 -29 c -16 0 -30 -3 -30 -8 c 0 -4 15 -7 33 -7 c 26 0 33 -4 35 -22 c 3 -20 -1 -23 -32 -23 c -27 0 -34 3 -30 15 c 4 8 1 15 -5 15 c -12 0 -14 -11 -5 -33 c 4 -11 16 -14 40 -11 l 34 4 l 0 -76 l 0 -77 l -47 6 c -25 3 -59 0 -75 -5 c -53 -19 -148 25 -148 67 c 0 10 10 15 30 15 c 23 0 30 -4 30 -20 c 0 -22 33 -60 52 -60 c 6 0 4 6 -5 13 c -11 7 -20 32 -24 64 c -8 69 6 87 59 79 c 40 -7 45 -3 26 17 c -12 14 -75 10 -84 -4 c -3 -5 -18 -9 -34 -9 c -16 0 -32 -4 -35 -10 c -4 -6 5 -10 19 -10 c 21 0 26 -5 26 -26 c 0 -24 -3 -26 -34 -22 c -30 3 -35 1 -39 -21 c -7 -33 7 -57 41 -75 c 49 -25 90 -29 124 -11 c 21 10 34 12 36 5 c 6 -17 68 -11 85 8 c 20 22 24 167 6 238 c -12 46 -49 85 -78 82 c -9 -1 -34 -3 -56 -5 z"/>
<path transform="matrix(1.3,0,0,1.2,-539,-40.5)" d="M 1854.2 605.2 c -23 -4 -24 -5 -5 -13 c 16 -6 12 -8 -16 -8 c -43 -1 -78 -31 -37 -31 c 24 0 24 0 20 -86 c -4 -67 -1 -93 13 -125 c 22 -47 38 -52 22 -6 c -6 17 -12 71 -12 119 c 0 69 4 91 17 104 c 15 15 21 16 45 4 c 15 -7 49 -13 76 -11 l 47 2 l 0 -167 c 0 -150 -2 -170 -20 -199 c -36 -59 -149 -86 -190 -45 c -11 11 -20 25 -20 31 c 0 6 9 1 20 -12 l 19 -24 l -5 25 c -11 51 -10 55 14 52 c 22 -3 30 12 12 23 c -13 8 -50 -12 -50 -27 c 0 -6 -7 -19 -16 -29 c -22 -25 -3 -55 44 -70 c 72 -21 168 26 198 98 c 10 23 14 84 14 218 c 0 197 2 192 -50 175 l -25 -8 l 28 -1 c 39 -1 37 -31 -3 -31 c -16 0 -30 5 -30 11 c 0 8 -4 8 -12 1 c -15 -11 -58 2 -58 17 c 0 5 8 12 18 14 c 23 6 -26 6 -58 -1 z"/>
<path transform="matrix(1.3,0,0,1.2,-636.7,-50)" d="M 2357 611.3 c -3 -5 1 -10 10 -10 c 9 0 27 -12 40 -26 c 44 -47 28 -122 -32 -153 c -23 -12 -115 -15 -126 -4 c -10 9 13 34 25 27 c 6 -4 5 3 -1 15 c -13 23 -7 41 13 41 c 17 0 48 35 39 43 c -12 13 -25 7 -19 -8 c 3 -10 -1 -15 -14 -15 c -10 0 -22 -5 -26 -11 c -4 -8 -9 -7 -15 2 c -6 9 -7 -3 -4 -29 c 4 -29 2 -41 -5 -37 c -7 4 -8 -8 -4 -37 c 7 -46 28 -88 44 -88 c 14 0 12 12 -5 34 c -23 30 -18 36 28 36 c 77 0 147 66 147 138 c 0 53 -74 116 -95 82 z"/>
<path transform="matrix(1.3,0,0,1.2,-714.7,-56.8)" d="M 2728.1 614.2 c 29 -18 56 -46 56 -57 c 0 -20 -31 -9 -40 15 c -5 14 -20 27 -35 31 c -32 8 -92 -1 -111 -17 c -16 -13 -19 -55 -5 -63 c 5 -4 8 5 6 19 c -3 33 22 47 78 43 c 34 -2 44 -8 55 -30 c 14 -30 31 -35 50 -16 c 31 31 -4 89 -53 87 c -19 0 -19 0 -1 -12 z"/>
<path transform="matrix(1.3,0,0,1.2,-931.6,-47.3)" d="M 3726.9 615 c 0 -2 15 -13 34 -24 c 44 -26 56 -67 56 -195 l 0 -97 l -52 1 c -29 0 -68 -3 -86 -6 c -43 -10 -106 18 -121 53 c -8 17 -15 22 -22 15 c -15 -15 5 -49 39 -67 c 48 -24 88 -28 126 -12 c 20 8 36 11 36 5 c 0 -5 15 -9 33 -9 c 56 0 67 22 67 131 c 0 107 -10 152 -42 186 c -18 19 -68 33 -68 19 z"/>
<path transform="matrix(1.3,0,0,1.2,-1135.1,-48.5)" d="M 4634.1 605 c 58 -43 67 -58 62 -100 c -8 -59 -52 -95 -115 -95 c -43 0 -72 12 -72 31 c 0 4 9 5 21 2 c 19 -5 20 -4 7 16 c -12 20 -10 24 12 41 c 18 14 21 20 9 20 c -62 1 -76 -143 -19 -195 c 21 -19 22 -5 2 32 c -17 32 -16 33 31 33 c 54 0 108 35 132 86 c 14 31 15 43 6 74 c -11 39 -47 70 -78 70 c -16 -1 -16 -2 2 -15 z"/>
<path transform="matrix(1.3,0,0,1.2,-628.4,-58.1)" d="M 2264.3 588.3 c -13 -10 -19 -19 -12 -20 c 6 0 15 5 18 10 c 7 11 48 14 59 3 c 7 -7 36 -14 36 -8 c 0 2 -7 11 -16 19 c -21 22 -57 20 -85 -4 z"/>
<path transform="matrix(1.3,0,0,1.2,-924.3,-57.1)" d="M 3589.1 580.4 c -18 -15 -35 -28 -37 -30 c -2 -2 -1 -6 2 -10 c 4 -3 20 6 35 20 c 40 38 117 34 144 -7 c 5 -7 8 -7 8 -1 c 0 6 -7 21 -16 33 c -23 33 -92 31 -136 -5 z"/>
<path transform="matrix(1.3,0,0,1.2,-1129.7,-57.7)" d="M 4530.8 588.9 c -18 -20 -18 -20 13 -8 c 26 10 36 8 63 -8 l 33 -19 l -16 24 c -21 33 -69 38 -93 11 z"/>
<path transform="matrix(1.3,0,0,1.2,-1203.3,-46.7)" d="M 4935.4 575.5 c -36 -38 -53 -104 -51 -197 l 2 -85 l -29 3 c -16 2 -33 5 -38 5 c -5 1 -11 -4 -13 -10 c -6 -17 71 -17 85 0 c 5 6 12 59 14 117 c 3 74 9 115 21 138 c 20 36 32 39 59 15 c 23 -21 33 -11 16 16 c -17 27 -39 27 -66 -2 z"/>
<path transform="matrix(1.3,0,0,1.2,-1252.8,-55.3)" d="M 5113.9 579.9 c -23 -29 -26 -51 -11 -74 c 9 -13 10 -13 11 0 c 1 8 0 24 0 36 c -2 26 23 48 48 41 c 14 -3 18 -1 14 9 c -8 22 -40 16 -62 -12 z"/>
<path transform="matrix(1.3,0,0,1.2,-843.9,-37.2)" d="M 3397 549.3 c -10 -6 -11 -9 -2 -9 c 8 0 12 -17 12 -50 c 0 -49 0 -50 -30 -46 c -16 2 -30 -1 -30 -5 c 0 -5 14 -9 31 -9 l 31 0 l -4 -109 c -3 -124 -16 -152 -82 -185 c -64 -31 -166 -1 -166 50 c 0 14 -3 15 -12 6 c -9 -9 -7 -18 8 -39 c 61 -82 203 -54 253 49 c 19 39 21 62 21 196 c 0 83 -4 153 -8 156 c -4 2 -14 1 -22 -5 z"/>
<path transform="matrix(1.3,0,0,1.2,-1129.6,-54.7)" d="M 4569.7 545.3 c 3 -5 8 -10 11 -10 c 2 0 4 5 4 10 c 0 6 -5 10 -11 10 c -5 0 -7 -4 -4 -10 z"/>
<path transform="matrix(1.3,0,0,1.2,-938.9,-44.9)" d="M 3753.7 511 c 0 -12 -9 -28 -18 -35 c -13 -11 -15 -11 -9 -1 c 6 10 -3 12 -41 10 c -26 -2 -46 -5 -43 -8 c 2 -3 -3 -16 -13 -30 c -24 -34 -22 -92 4 -121 l 21 -24 l -7 25 c -15 53 -17 101 -5 115 c 9 11 27 14 66 11 c 34 -2 52 0 51 7 c -1 6 12 14 28 18 c 30 7 30 7 3 8 c -19 1 -28 7 -31 24 c -4 21 -4 21 -6 1 z"/>
<path transform="matrix(1.3,0,0,1.2,-1248.2,-50)" d="M 5069.1 505.3 c 0 -35 34 -60 65 -48 c 22 9 19 23 -4 17 c -12 -3 -26 5 -40 23 c -18 22 -21 24 -21 8 z"/>
<path transform="matrix(1.3,0,0,1.2,-700.7,-47.4)" d="M 2528 499.1 c -9 -15 7 -41 35 -55 c 34 -17 169 -49 177 -41 c 7 7 -38 24 -101 38 c -31 7 -61 21 -78 38 c -15 16 -30 25 -33 20 z"/>
<path transform="matrix(1.3,0,0,1.2,-710.6,-41.9)" d="M 2712.9 491.3 c 91 -42 103 -139 21 -187 c -59 -35 -142 -20 -185 34 l -18 21 l 0 -22 c 0 -27 35 -52 92 -65 c 105 -23 202 69 176 168 c -10 40 -24 51 -73 57 c -38 5 -38 5 -13 -6 z"/>
<path transform="matrix(1.3,0,0,1.2,-823,-45.4)" d="M 3074.4 474.4 c 7 -51 41 -96 90 -118 c 50 -23 96 -24 122 -4 c 18 15 18 15 -9 9 c -70 -16 -139 23 -183 105 l -25 46 l 5 -38 z"/>
<path transform="matrix(1.3,0,0,1.2,-283.1,-42.2)" d="M 730.2 472.7 c 0 -11 -10 -18 -32 -21 l -33 -3 l 33 -8 l 32 -8 l 0 -70 l 0 -70 l -37 4 c -22 2 -38 -2 -41 -10 c -2 -8 8 -12 31 -12 c 49 0 67 25 67 93 c 0 53 2 57 23 57 c 13 0 31 8 40 18 c 19 20 11 38 -8 22 c -16 -14 -54 -7 -66 11 c -7 11 -9 11 -9 -3 z"/>
<path transform="matrix(1.3,0,0,1.2,-1000.5,-49.8)" d="M 3981.8 481.2 c 0 -5 5 -10 11 -10 c 5 0 7 5 4 10 c -3 6 -8 10 -11 10 c -2 0 -4 -4 -4 -10 z"/>
<path transform="matrix(1.3,0,0,1.2,-220.9,-47.4)" d="M 450.7 449.1 c 0 -5 5 -10 11 -10 c 5 0 7 5 4 10 c -3 6 -8 10 -11 10 c -2 0 -4 -4 -4 -10 z"/>
<path transform="matrix(1.3,0,0,1.2,-905.8,-47)" d="M 3554.4 441.7 c 7 -3 16 -2 19 1 c 4 3 -2 6 -13 5 c -11 0 -14 -3 -6 -6 z"/>
<path transform="matrix(1.3,0,0,1.2,-962,-47)" d="M 3809.2 441.7 c 7 -3 16 -2 19 1 c 4 3 -2 6 -13 5 c -11 0 -14 -3 -6 -6 z"/>
<path transform="matrix(1.3,0,0,1.2,-546.8,-43.6)" d="M 1938.3 412.9 c -32 -13 -37 -26 -9 -24 c 11 0 17 6 15 12 c -3 5 2 1 10 -9 c 15 -19 16 -19 16 7 c 0 15 -1 27 -2 26 c -2 -1 -15 -6 -30 -12 z"/>
<path transform="matrix(1.3,0,0,1.2,-455.6,-43)" d="M 1511.7 403.3 c -3 -5 -10 -6 -15 -3 c -5 4 -9 1 -9 -4 c 0 -10 7 -13 28 -10 c 4 1 6 5 4 11 c -1 5 2 7 7 3 c 6 -3 8 -11 5 -19 c -3 -7 2 -13 11 -13 c 9 0 15 9 15 23 c 0 17 -5 22 -21 21 c -11 -1 -23 -5 -25 -9 z"/>
<path transform="matrix(1.3,0,0,1.2,-629.1,-38)" d="M 2155.9 391 c 0 -84 119 -153 207 -119 c 49 18 98 79 63 79 c -5 0 -10 -9 -10 -21 c 0 -24 -52 -49 -101 -49 c -49 0 -104 37 -133 89 c -22 39 -26 42 -26 21 z"/>
<path transform="matrix(1.3,0,0,1.2,-687.5,-40.5)" d="M 2549.4 380.1 c -6 -41 -1 -52 29 -66 c 23 -10 24 -9 14 9 c -5 10 -15 22 -20 25 c -6 3 -7 17 -4 30 c 3 12 1 26 -4 29 c -5 3 -12 -9 -15 -27 z"/>
<path transform="matrix(1.3,0,0,1.2,-943.6,-43.4)" d="M 3721.4 404.7 c -4 -5 -11 -7 -16 -4 c -5 3 -6 0 -3 -8 c 7 -20 64 -17 64 3 c 0 17 -36 24 -45 9 z"/>
<path transform="matrix(1.3,0,0,1.2,-1127.3,-38.5)" d="M 4422.9 377.5 c 0 -21 11 -40 39 -66 c 43 -41 90 -55 146 -44 c 43 8 100 58 88 76 c -6 9 -9 6 -11 -10 c -5 -33 -55 -55 -114 -50 c -58 6 -95 30 -125 84 l -23 39 l 0 -29 z"/>
<path transform="matrix(1.3,0,0,1.2,-520.7,-36.9)" d="M 1729.5 365.1 c 0 -34 36 -85 60 -85 c 28 0 50 -11 50 -25 c 0 -7 7 -15 15 -19 c 10 -4 15 1 15 14 c 0 11 6 20 14 20 c 8 0 17 3 19 8 c 3 4 -17 7 -43 7 c -40 0 -54 5 -79 29 c -17 17 -31 38 -31 47 c 0 10 -4 21 -10 24 c -6 4 -10 -5 -10 -20 z"/>
<path transform="matrix(1.3,0,0,1.2,-1289.9,-37.9)" d="M 5212.4 352.9 c 0 -13 13 -37 29 -53 c 25 -25 37 -29 85 -29 c 30 0 58 5 61 10 c 4 6 -15 10 -48 10 c -56 0 -70 8 -112 65 c -14 20 -14 20 -15 -3 z"/>
<path transform="matrix(1.3,0,0,1.2,-462.3,-37.8)" d="M 1543 319.8 c 0 -5 5 -7 10 -4 c 6 3 10 8 10 11 c 0 2 -4 4 -10 4 c -5 0 -10 -5 -10 -11 z"/>
<path transform="matrix(1.3,0,0,1.2,-1046,-37.5)" d="M 4188.1 320.6 c 18 -12 30 -13 30 -2 c 0 4 -10 9 -22 9 c -18 2 -20 0 -8 -7 z"/>
<path transform="matrix(1.3,0,0,1.2,-1003.4,-31.4)" d="M 3909.2 295.3 c 3 -5 14 -10 24 -10 c 10 0 36 -20 59 -45 c 44 -49 89 -72 105 -56 c 6 6 1 12 -15 16 c -14 4 -47 29 -74 56 c -35 36 -56 49 -77 49 c -16 0 -26 -4 -22 -10 z"/>
<path transform="matrix(1.3,0,0,1.2,-821.9,-30.5)" d="M 3194.5 284.6 c -4 -6 -1 -10 4 -10 c 6 0 11 -4 11 -9 c 0 -4 -11 -6 -25 -4 c -19 4 -27 0 -36 -20 c -14 -30 6 -79 34 -83 c 15 -2 15 0 -3 23 c -26 33 -27 65 -2 61 c 19 -3 52 18 52 32 c 0 12 -29 20 -35 10 z"/>
<path transform="matrix(1.3,0,0,1.2,-1279.9,-29)" d="M 5231.4 236.3 c -9 -36 14 -93 38 -93 c 21 0 19 14 -4 35 c -11 9 -21 33 -23 54 l -3 36 l -8 -32 z"/>
</g>
</svg>
